<svg width="19" height="19" viewBox="0 0 19 19" fill="none" xmlns="http://www.w3.org/2000/svg">
<path d="M10.382 1.04561C10.382 0.468138 9.91385 0 9.33637 0C8.75889 0 8.29076 0.468137 8.29076 1.04561V7.15907C8.29076 7.78408 7.78408 8.29076 7.15907 8.29076H1.04561C0.468138 8.29076 0 8.75889 0 9.33637C0 9.91385 0.468137 10.382 1.04561 10.382H7.15907C7.78408 10.382 8.29076 10.8887 8.29076 11.5137V17.6271C8.29076 18.2046 8.75889 18.6727 9.33637 18.6727C9.91385 18.6727 10.382 18.2046 10.382 17.6271V11.5137C10.382 10.8887 10.8887 10.382 11.5137 10.382H17.6271C18.2046 10.382 18.6727 9.91385 18.6727 9.33637C18.6727 8.75889 18.2046 8.29076 17.6271 8.29076H11.5137C10.8887 8.29076 10.382 7.78408 10.382 7.15907V1.04561Z" fill="#0D0D0D"/>
</svg>
