<svg width="20" height="24" viewBox="0 0 20 24" fill="none" xmlns="http://www.w3.org/2000/svg">
<mask id="mask0_157_10168" style="mask-type:luminance" maskUnits="userSpaceOnUse" x="1" y="1" width="18" height="21">
<path d="M15.7649 10.5V20C15.7649 20.2652 15.6775 20.5196 15.5218 20.7071C15.3662 20.8946 15.1552 21 14.9351 21H3.31898C3.09893 21 2.88788 20.8946 2.73228 20.7071C2.57668 20.5196 2.48926 20.2652 2.48926 20V6C2.48926 5.73478 2.57668 5.48043 2.73228 5.29289C2.88788 5.10536 3.09893 5 3.31898 5H10.9375" stroke="white" stroke-width="2" stroke-miterlimit="10" stroke-linecap="round" stroke-linejoin="round"/>
<path d="M4.97852 15.515L7.46769 11.5L8.71228 13L10.1643 10.25L13.2758 15.515H4.97852Z" fill="#555555" stroke="white" stroke-width="2" stroke-miterlimit="10" stroke-linecap="round" stroke-linejoin="round"/>
<path d="M14.1055 4.99996H17.4244M15.7628 2.89746V6.89746" stroke="white" stroke-width="2" stroke-miterlimit="10" stroke-linecap="round" stroke-linejoin="round"/>
</mask>
<g mask="url(#mask0_157_10168)">
<path d="M0 0H19.9134V24H0V0Z" fill="#386BF6" fill-opacity="0.7"/>
</g>
</svg>
