<svg width="20" height="20" viewBox="0 0 20 20" fill="none" xmlns="http://www.w3.org/2000/svg">
<path d="M19.8397 9.67272C20.0534 9.89209 20.0534 10.2478 19.8397 10.4672L16.1627 14.2407C15.9489 14.4601 15.6023 14.4601 15.3886 14.2407L11.7116 10.4672C11.4978 10.2478 11.4978 9.89209 11.7116 9.67272L15.3886 5.89916C15.6023 5.67978 15.9489 5.67978 16.1627 5.89916L19.8397 9.67272Z" fill="#646466"/>
<path d="M8.28842 9.67272C8.50219 9.89209 8.50219 10.2478 8.28842 10.4672L4.61143 14.2407C4.39766 14.4601 4.05108 14.4601 3.83732 14.2407L0.160322 10.4672C-0.0534408 10.2478 -0.0534408 9.89209 0.160322 9.67272L3.83732 5.89916C4.05108 5.67978 4.39766 5.67978 4.61142 5.89916L8.28842 9.67272Z" fill="#646466"/>
<path d="M14.0807 15.2675C14.2945 15.4868 14.2945 15.8425 14.0807 16.0619L10.4037 19.8355C10.19 20.0548 9.8434 20.0548 9.62963 19.8355L5.95264 16.0619C5.73887 15.8425 5.73887 15.4868 5.95264 15.2675L9.62963 11.4939C9.8434 11.2745 10.19 11.2745 10.4037 11.4939L14.0807 15.2675Z" fill="#646466"/>
<path d="M14.0807 3.93809C14.2945 4.15747 14.2945 4.51315 14.0807 4.73253L10.4037 8.50609C10.19 8.72546 9.8434 8.72546 9.62963 8.50609L5.95264 4.73253C5.73887 4.51315 5.73887 4.15747 5.95264 3.93809L9.62963 0.164533C9.8434 -0.0548442 10.19 -0.0548442 10.4037 0.164533L14.0807 3.93809Z" fill="#646466"/>
</svg>
