<svg width="25" height="25" viewBox="0 0 25 25" fill="none" xmlns="http://www.w3.org/2000/svg">
<path fill-rule="evenodd" clip-rule="evenodd" d="M0.915583 10.6372C0.625312 10.9274 0.395053 11.2719 0.237955 11.6511C0.0808577 12.0303 0 12.4368 0 12.8472C0 13.2577 0.0808577 13.6641 0.237955 14.0433C0.395053 14.4225 0.625312 14.767 0.915583 15.0572L4.45183 18.5922C4.91565 19.0556 5.51347 19.3614 6.16067 19.4663C6.80787 19.5711 7.47166 19.4698 8.05808 19.1766C8.64451 18.8834 9.12385 18.4131 9.42827 17.8325C9.73269 17.2518 9.84676 16.5901 9.75433 15.941L10.9706 14.7247L18.5681 23.4922C18.8822 23.8542 19.2674 24.1477 19.6999 24.3544C20.1323 24.5611 20.6027 24.6765 21.0817 24.6934C21.5607 24.7104 22.038 24.6286 22.484 24.453C22.93 24.2775 23.335 24.012 23.6739 23.6731C24.0128 23.3342 24.2783 22.9291 24.4539 22.4831C24.6294 22.0371 24.7113 21.5598 24.6943 21.0808C24.6773 20.6018 24.5619 20.1314 24.3553 19.699C24.1486 19.2666 23.8551 18.8813 23.4931 18.5672L14.7268 10.9685L15.9418 9.75346C16.5912 9.84624 17.2533 9.73233 17.8343 9.42788C18.4153 9.12343 18.8858 8.64388 19.179 8.05716C19.4723 7.47043 19.5736 6.8063 19.4684 6.15884C19.3632 5.51138 19.057 4.91344 18.5931 4.44971L15.0581 0.915961C14.5943 0.451892 13.9962 0.145568 13.3486 0.0404067C12.701 -0.064755 12.0367 0.0365805 11.4499 0.33005C10.8631 0.623519 10.3836 1.09424 10.0792 1.67548C9.7749 2.25672 9.66123 2.91901 9.75433 3.56846L3.56683 9.75471C3.08684 9.68635 2.59752 9.73061 2.13759 9.884C1.67765 10.0374 1.25971 10.2957 0.916833 10.6385M13.7331 8.42846L8.43058 13.731L5.77808 11.0797L11.0818 5.77596L13.7331 8.42846ZM2.68308 13.2897C2.62497 13.2317 2.57886 13.1628 2.54738 13.0869C2.5159 13.0111 2.49967 12.9298 2.49961 12.8477C2.49955 12.7655 2.51567 12.6842 2.54704 12.6083C2.57842 12.5324 2.62443 12.4634 2.68246 12.4053C2.74049 12.3472 2.80939 12.3011 2.88524 12.2696C2.96109 12.2382 3.04239 12.2219 3.12452 12.2219C3.20664 12.2218 3.28797 12.2379 3.36386 12.2693C3.43975 12.3007 3.50872 12.3467 3.56683 12.4047L7.10308 15.941C7.16278 15.9986 7.21039 16.0676 7.24315 16.1438C7.2759 16.2201 7.29314 16.3021 7.29386 16.3851C7.29459 16.4681 7.27877 16.5504 7.24735 16.6272C7.21592 16.704 7.16951 16.7738 7.11083 16.8325C7.05215 16.8911 6.98236 16.9375 6.90555 16.969C6.82874 17.0004 6.74644 17.0162 6.66346 17.0155C6.58047 17.0148 6.49846 16.9975 6.4222 16.9648C6.34595 16.932 6.27699 16.8844 6.21933 16.8247L2.68308 13.2897ZM12.4056 3.56596C12.3459 3.50831 12.2983 3.43934 12.2655 3.36309C12.2328 3.28684 12.2155 3.20482 12.2148 3.12184C12.2141 3.03885 12.2299 2.95655 12.2613 2.87974C12.2927 2.80293 12.3392 2.73315 12.3978 2.67446C12.4565 2.61578 12.5263 2.56937 12.6031 2.53795C12.6799 2.50652 12.7622 2.49071 12.8452 2.49143C12.9282 2.49215 13.0102 2.50939 13.0865 2.54215C13.1627 2.5749 13.2317 2.62252 13.2893 2.68221L16.8256 6.21846C16.8853 6.27611 16.9329 6.34508 16.9656 6.42133C16.9984 6.49759 17.0156 6.5796 17.0164 6.66259C17.0171 6.74557 17.0013 6.82787 16.9698 6.90468C16.9384 6.98149 16.892 7.05127 16.8333 7.10996C16.7746 7.16864 16.7049 7.21505 16.6281 7.24647C16.5512 7.2779 16.4689 7.29371 16.386 7.29299C16.303 7.29227 16.221 7.27503 16.1447 7.24227C16.0685 7.20952 15.9995 7.1619 15.9418 7.10221L12.4056 3.56596ZM20.4581 21.8547L12.9481 13.1897L13.1906 12.946L21.8568 20.456C21.9566 20.546 22.0371 20.6555 22.0933 20.7776C22.1495 20.8998 22.1802 21.0321 22.1837 21.1665C22.1871 21.3009 22.1632 21.4346 22.1133 21.5594C22.0634 21.6843 21.9887 21.7977 21.8936 21.8928C21.7986 21.9878 21.6852 22.0626 21.5603 22.1124C21.4354 22.1623 21.3017 22.1862 21.1673 22.1828C21.0329 22.1793 20.9006 22.1486 20.7785 22.0924C20.6563 22.0362 20.5469 21.9558 20.4568 21.856" fill="#0D0D0D"/>
</svg>
