<?xml version="1.0" standalone="no"?>
<!DOCTYPE svg PUBLIC "-//W3C//DTD SVG 20010904//EN"
 "http://www.w3.org/TR/2001/REC-SVG-20010904/DTD/svg10.dtd">
<svg version="1.0" xmlns="http://www.w3.org/2000/svg"
 width="512.000000pt" height="512.000000pt" viewBox="0 0 512.000000 512.000000"
 preserveAspectRatio="xMidYMid meet">
<metadata>
Created by potrace 1.16, written by Peter Selinger 2001-2019
</metadata>
<g transform="translate(0.000000,512.000000) scale(0.100000,-0.100000)"
fill="#000000" stroke="none">
<path d="M3808 4947 l-1248 -171 0 -993 0 -993 1280 0 1280 0 0 1165 0 1165
-32 -1 c-18 -1 -594 -78 -1280 -172z m1072 -1007 l0 -910 -1040 0 -1040 0 0
765 c0 421 1 765 3 765 15 2 2073 288 2075 289 1 1 2 -408 2 -909z"/>
<path d="M1205 4591 c-473 -65 -938 -128 -1032 -141 l-173 -23 0 -818 0 -819
1050 0 1050 0 0 960 c0 908 -1 960 -17 959 -10 -1 -405 -54 -878 -118z m655
-861 l0 -700 -810 0 -810 0 0 590 c0 465 3 590 13 591 6 0 361 49 787 108 426
60 785 109 798 110 l22 1 0 -700z"/>
<path d="M0 1510 c0 -637 3 -820 12 -820 7 0 456 -61 998 -136 542 -74 1009
-138 1038 -141 l52 -6 0 962 0 961 -1050 0 -1050 0 0 -820z m1860 -123 l0
-703 -807 112 c-445 62 -809 113 -810 113 -2 1 -3 267 -3 591 l0 590 810 0
810 0 0 -703z"/>
<path d="M2560 1337 l0 -993 1268 -172 c697 -95 1273 -173 1280 -172 9 0 12
240 12 1165 l0 1165 -1280 0 -1280 0 0 -993z m2320 -157 c0 -501 -3 -910 -7
-910 -5 1 -471 65 -1038 143 l-1030 142 -3 768 -2 767 1040 0 1040 0 0 -910z"/>
</g>
</svg>
