<svg width="16" height="16" viewBox="0 0 16 16" fill="none" xmlns="http://www.w3.org/2000/svg">
<g clip-path="url(#clip0_157_11862)">
<path d="M13.0312 12.5H1.03125C0.898642 12.5 0.771465 12.4473 0.677697 12.3536C0.583928 12.2598 0.53125 12.1326 0.53125 12C0.53125 11.8674 0.583928 11.7402 0.677697 11.6464C0.771465 11.5527 0.898642 11.5 1.03125 11.5H13.0312C13.1639 11.5 13.291 11.5527 13.3848 11.6464C13.4786 11.7402 13.5312 11.8674 13.5312 12C13.5312 12.1326 13.4786 12.2598 13.3848 12.3536C13.291 12.4473 13.1639 12.5 13.0312 12.5ZM12.0312 14H2.03125C1.89864 14 1.77146 13.9473 1.6777 13.8536C1.58393 13.7598 1.53125 13.6326 1.53125 13.5C1.53125 13.3674 1.58393 13.2402 1.6777 13.1464C1.77146 13.0527 1.89864 13 2.03125 13H12.0312C12.1639 13 12.291 13.0527 12.3848 13.1464C12.4786 13.2402 12.5312 13.3674 12.5312 13.5C12.5312 13.6326 12.4786 13.7598 12.3848 13.8536C12.291 13.9473 12.1639 14 12.0312 14ZM0.03125 8.5H-0.46875V10C-0.46875 10.2652 -0.363393 10.5196 -0.175857 10.7071C0.0116796 10.8946 0.266034 11 0.53125 11H2.03125V10.5C2.03067 9.96974 1.81977 9.46137 1.44482 9.08643C1.06988 8.71148 0.561505 8.50058 0.03125 8.5Z" fill="#386BF6"/>
<path d="M14.0312 7.5H14.5312V5.5H14.0312C13.2359 5.49909 12.4733 5.18273 11.9109 4.62032C11.3485 4.0579 11.0322 3.29537 11.0312 2.5V2H3.03125V2.5C3.03034 3.29537 2.71398 4.0579 2.15157 4.62032C1.58915 5.18273 0.82662 5.49909 0.03125 5.5H-0.46875V7.5H0.03125C0.82662 7.50091 1.58915 7.81727 2.15157 8.37968C2.71398 8.9421 3.03034 9.70463 3.03125 10.5V11H11.0312V10.5C11.0322 9.70463 11.3485 8.9421 11.9109 8.37968C12.4733 7.81727 13.2359 7.50091 14.0312 7.5ZM7.03125 9.5C6.43791 9.5 5.85789 9.32405 5.36454 8.99441C4.87119 8.66476 4.48667 8.19623 4.25961 7.64805C4.03255 7.09987 3.97314 6.49667 4.08889 5.91473C4.20465 5.33279 4.49037 4.79824 4.90993 4.37868C5.32949 3.95912 5.86404 3.6734 6.44598 3.55764C7.02792 3.44189 7.63112 3.5013 8.1793 3.72836C8.72748 3.95542 9.19601 4.33994 9.52566 4.83329C9.8553 5.32664 10.0312 5.90666 10.0312 6.5C10.0303 7.29537 9.71398 8.0579 9.15157 8.62032C8.58915 9.18273 7.82662 9.49909 7.03125 9.5Z" fill="#386BF6"/>
<path d="M7.03125 8.5C8.13582 8.5 9.03125 7.60457 9.03125 6.5C9.03125 5.39543 8.13582 4.5 7.03125 4.5C5.92668 4.5 5.03125 5.39543 5.03125 6.5C5.03125 7.60457 5.92668 8.5 7.03125 8.5Z" fill="#386BF6"/>
<path d="M12.0312 10.5V11H13.5312C13.7965 11 14.0508 10.8946 14.2384 10.7071C14.4259 10.5196 14.5312 10.2652 14.5312 10V8.5H14.0312C13.501 8.50058 12.9926 8.71148 12.6177 9.08643C12.2427 9.46137 12.0318 9.96974 12.0312 10.5ZM14.0312 4.5H14.5312V3C14.5312 2.73478 14.4259 2.48043 14.2384 2.29289C14.0508 2.10536 13.7965 2 13.5312 2H12.0312V2.5C12.0318 3.03026 12.2427 3.53863 12.6177 3.91357C12.9926 4.28852 13.501 4.49942 14.0312 4.5ZM2.03125 2.5V2H0.53125C0.266034 2 0.0116796 2.10536 -0.175857 2.29289C-0.363393 2.48043 -0.46875 2.73478 -0.46875 3V4.5H0.03125C0.561505 4.49942 1.06988 4.28852 1.44482 3.91357C1.81977 3.53863 2.03067 3.03026 2.03125 2.5Z" fill="#386BF6"/>
</g>
<defs>
<clipPath id="clip0_157_11862">
<rect width="16" height="16" fill="white"/>
</clipPath>
</defs>
</svg>
