<svg width="30" height="30" viewBox="0 0 30 30" fill="none" xmlns="http://www.w3.org/2000/svg">
<path d="M20.2937 10.8295C19.2755 10.4391 18.201 10.1605 17.0972 10.0006C17.0872 9.99916 17.0769 10.0004 17.0678 10.004C17.0586 10.0077 17.0511 10.0137 17.0461 10.0211C16.9078 10.2261 16.7546 10.4942 16.6477 10.7041C15.4578 10.5532 14.2475 10.5532 13.0576 10.7041C12.9383 10.4702 12.8033 10.2422 12.6532 10.0211C12.6482 10.0137 12.6406 10.0079 12.6315 10.0042C12.6224 10.0006 12.6122 9.99928 12.6022 10.0006C11.4981 10.1596 10.4234 10.4384 9.40566 10.8295C9.39695 10.8323 9.38967 10.8375 9.38505 10.8443C7.34956 13.3853 6.79112 15.864 7.06494 18.3115C7.06592 18.323 7.07475 18.3344 7.08555 18.3418C8.27085 19.0754 9.59664 19.6354 11.0064 19.9981C11.0163 20.0007 11.027 20.0006 11.0369 19.9978C11.0468 19.995 11.0554 19.9897 11.0613 19.9825C11.3636 19.6381 11.6325 19.2749 11.8642 18.8928C11.869 18.885 11.8706 18.876 11.8689 18.8673C11.8671 18.8586 11.862 18.8505 11.8543 18.8444C11.8493 18.8404 11.8433 18.8374 11.8367 18.8354C11.4138 18.6997 11.0043 18.5365 10.6118 18.3476C10.6009 18.3424 10.5927 18.3339 10.5891 18.3238C10.5854 18.3137 10.5865 18.3028 10.5922 18.2934C10.5956 18.2873 10.6006 18.282 10.6069 18.2779C10.6894 18.2262 10.7718 18.1721 10.8503 18.118C10.8573 18.1133 10.8656 18.1103 10.8744 18.1093C10.8832 18.1083 10.8922 18.1093 10.9004 18.1122C13.4708 19.0929 16.2531 19.0929 18.7921 18.1122C18.8006 18.1092 18.8099 18.1081 18.8191 18.1091C18.8282 18.1101 18.8369 18.1132 18.8441 18.118C18.9226 18.1721 19.0051 18.2262 19.0875 18.2779C19.0942 18.2819 19.0996 18.2873 19.1031 18.2936C19.1067 18.2998 19.1084 18.3067 19.108 18.3136C19.1076 18.3205 19.1052 18.3272 19.1009 18.3331C19.0967 18.3391 19.0907 18.344 19.0836 18.3476C18.692 18.5383 18.282 18.7012 17.8578 18.8346C17.851 18.8367 17.8449 18.8399 17.8398 18.8442C17.8347 18.8484 17.8308 18.8536 17.8283 18.8592C17.8261 18.8647 17.8252 18.8705 17.8257 18.8763C17.8262 18.882 17.8281 18.8877 17.8313 18.8928C18.0668 19.2741 18.3367 19.6381 18.6331 19.9825C18.6391 19.9897 18.6477 19.995 18.6575 19.9978C18.6674 20.0006 18.6781 20.0007 18.6881 19.9981C20.1002 19.6365 21.4281 19.0764 22.6148 18.3418C22.6207 18.3384 22.6257 18.3339 22.6292 18.3286C22.6328 18.3234 22.6349 18.3175 22.6354 18.3115C22.9632 15.4819 22.0868 13.0237 20.3133 10.8451C20.3115 10.8415 20.3089 10.8383 20.3055 10.8356C20.3021 10.8329 20.2981 10.8308 20.2937 10.8295ZM12.2479 16.8208C11.4735 16.8208 10.8366 16.2272 10.8366 15.4991C10.8366 14.7702 11.4618 14.1765 12.2479 14.1765C13.0399 14.1765 13.671 14.7751 13.6592 15.4991C13.6592 16.2272 13.034 16.8208 12.2479 16.8208ZM17.4652 16.8208C16.6918 16.8208 16.0539 16.2272 16.0539 15.4991C16.0539 14.7702 16.6791 14.1765 17.4652 14.1765C18.2572 14.1765 18.8893 14.7751 18.8765 15.4991C18.8765 16.2272 18.2572 16.8208 17.4652 16.8208Z" fill="white"/>
</svg>
