<svg width="32" height="32" viewBox="0 0 32 32" fill="none" xmlns="http://www.w3.org/2000/svg">
<path d="M31.1113 11.667V28.7773C31.1113 30.066 30.066 31.1113 28.7773 31.1113H2.33301C1.04449 31.1111 0 30.0659 0 28.7773V2.33301C0.000178719 1.0446 1.0446 0.000176879 2.33301 0H19.4443L31.1113 11.667Z" fill="#F2F2F2"/>
<path d="M19.4443 11.6667L31.111 11.6667L19.4443 0L19.4443 11.6667Z" fill="#BDBDBD"/>
<rect x="1.94434" y="15.5557" width="27.2222" height="12.6389" rx="1.28336" fill="#EF4444"/>
<path d="M6.52881 25.5212V18.2295H9.21334C9.76329 18.2295 10.2247 18.3339 10.5975 18.5428C10.9727 18.7517 11.2559 19.0389 11.4469 19.4044C11.6404 19.7676 11.7371 20.1806 11.7371 20.6434C11.7371 21.111 11.6404 21.5264 11.4469 21.8896C11.2535 22.2527 10.9681 22.5387 10.5906 22.7476C10.213 22.9541 9.74814 23.0574 9.19586 23.0574H7.41666V21.9715H9.02109C9.34267 21.9715 9.60599 21.9145 9.81106 21.8006C10.0161 21.6866 10.1676 21.53 10.2655 21.3306C10.3657 21.1312 10.4158 20.9022 10.4158 20.6434C10.4158 20.3847 10.3657 20.1568 10.2655 19.9598C10.1676 19.7628 10.015 19.6097 9.80757 19.5005C9.6025 19.389 9.33801 19.3332 9.01409 19.3332H7.82563V25.5212H6.52881Z" fill="white"/>
<path d="M15.2894 25.5212H12.8635V18.2295H15.3383C16.049 18.2295 16.6596 18.3755 17.1699 18.6674C17.6826 18.957 18.0764 19.3736 18.3514 19.9171C18.6264 20.4607 18.7639 21.111 18.7639 21.8682C18.7639 22.6278 18.6252 23.2805 18.3479 23.8264C18.0729 24.3723 17.6756 24.7913 17.1559 25.0832C16.6386 25.3752 16.0164 25.5212 15.2894 25.5212ZM14.1603 24.3783H15.2264C15.7251 24.3783 16.1411 24.2857 16.4743 24.1006C16.8076 23.9131 17.0581 23.6342 17.2258 23.2639C17.3936 22.8912 17.4775 22.426 17.4775 21.8682C17.4775 21.3104 17.3936 20.8476 17.2258 20.4797C17.0581 20.1094 16.8099 19.8329 16.4813 19.6501C16.1551 19.4649 15.7496 19.3724 15.2649 19.3724H14.1603V24.3783Z" fill="white"/>
<path d="M19.996 25.5212V18.2295H24.5821V19.3368H21.2928V21.3163H24.2675V22.4236H21.2928V25.5212H19.996Z" fill="white"/>
<path d="M6.52881 25.5212V18.2295H9.21334C9.76329 18.2295 10.2247 18.3339 10.5975 18.5428C10.9727 18.7517 11.2559 19.0389 11.4469 19.4044C11.6404 19.7676 11.7371 20.1806 11.7371 20.6434C11.7371 21.111 11.6404 21.5264 11.4469 21.8896C11.2535 22.2527 10.9681 22.5387 10.5906 22.7476C10.213 22.9541 9.74814 23.0574 9.19586 23.0574H7.41666V21.9715H9.02109C9.34267 21.9715 9.60599 21.9145 9.81106 21.8006C10.0161 21.6866 10.1676 21.53 10.2655 21.3306C10.3657 21.1312 10.4158 20.9022 10.4158 20.6434C10.4158 20.3847 10.3657 20.1568 10.2655 19.9598C10.1676 19.7628 10.015 19.6097 9.80757 19.5005C9.6025 19.389 9.33801 19.3332 9.01409 19.3332H7.82563V25.5212H6.52881Z" stroke="white" stroke-width="0.583334"/>
<path d="M15.2894 25.5212H12.8635V18.2295H15.3383C16.049 18.2295 16.6596 18.3755 17.1699 18.6674C17.6826 18.957 18.0764 19.3736 18.3514 19.9171C18.6264 20.4607 18.7639 21.111 18.7639 21.8682C18.7639 22.6278 18.6252 23.2805 18.3479 23.8264C18.0729 24.3723 17.6756 24.7913 17.1559 25.0832C16.6386 25.3752 16.0164 25.5212 15.2894 25.5212ZM14.1603 24.3783H15.2264C15.7251 24.3783 16.1411 24.2857 16.4743 24.1006C16.8076 23.9131 17.0581 23.6342 17.2258 23.2639C17.3936 22.8912 17.4775 22.426 17.4775 21.8682C17.4775 21.3104 17.3936 20.8476 17.2258 20.4797C17.0581 20.1094 16.8099 19.8329 16.4813 19.6501C16.1551 19.4649 15.7496 19.3724 15.2649 19.3724H14.1603V24.3783Z" stroke="white" stroke-width="0.583334"/>
<path d="M19.996 25.5212V18.2295H24.5821V19.3368H21.2928V21.3163H24.2675V22.4236H21.2928V25.5212H19.996Z" stroke="white" stroke-width="0.583334"/>
</svg>
