<?xml version="1.0" standalone="no"?>
<!DOCTYPE svg PUBLIC "-//W3C//DTD SVG 20010904//EN"
 "http://www.w3.org/TR/2001/REC-SVG-20010904/DTD/svg10.dtd">
<svg version="1.0" xmlns="http://www.w3.org/2000/svg"
 width="512.000000pt" height="512.000000pt" viewBox="0 0 512.000000 512.000000"
 preserveAspectRatio="xMidYMid meet">
<metadata>
Created by potrace 1.16, written by Peter Selinger 2001-2019
</metadata>
<g transform="translate(0.000000,512.000000) scale(0.100000,-0.100000)"
fill="#000000" stroke="none">
<path d="M2355 5103 c-85 -18 -202 -64 -270 -105 -97 -59 -615 -441 -644 -474
-67 -76 -66 -193 2 -271 61 -69 160 -92 242 -54 22 10 168 114 325 231 157
117 303 221 326 231 154 69 329 63 467 -14 68 -39 1641 -1291 1687 -1344 18
-20 45 -62 59 -93 l26 -55 0 -1130 c0 -1078 -1 -1133 -19 -1185 -53 -158 -170
-296 -306 -362 -119 -58 -190 -68 -490 -68 l-262 0 -29 29 -29 29 0 509 c0
561 -2 583 -62 696 -64 119 -175 214 -305 259 -67 23 -73 23 -508 23 -434 0
-441 0 -507 -23 -138 -48 -253 -148 -314 -276 -50 -104 -55 -146 -52 -423 l3
-250 28 -40 c89 -129 283 -117 352 21 24 48 25 56 25 260 0 232 5 258 63 300
28 20 40 21 401 21 338 0 374 -2 399 -18 64 -42 62 -17 67 -617 l5 -545 24
-55 c68 -153 185 -255 338 -295 83 -22 634 -21 758 0 197 35 375 127 520 270
144 141 229 286 282 480 l28 100 0 1165 0 1165 -23 78 c-42 148 -131 292 -233
380 -151 130 -1642 1311 -1694 1342 -79 46 -191 89 -287 109 -97 20 -298 20
-393 -1z"/>
<path d="M650 3827 c-60 -22 -276 -192 -335 -264 -68 -82 -127 -195 -157 -299
l-23 -79 0 -1160 0 -1160 22 -88 c32 -123 75 -221 142 -324 61 -91 188 -223
274 -282 73 -50 226 -119 319 -144 82 -22 93 -22 730 -22 l646 0 39 31 c116
92 110 263 -12 339 l-48 30 -601 6 c-541 5 -606 7 -656 23 -209 68 -365 226
-426 431 -17 56 -18 135 -21 1120 -3 712 0 1082 7 1128 20 129 62 189 214 301
115 85 137 112 151 187 8 46 -10 115 -42 157 -47 62 -153 95 -223 69z"/>
</g>
</svg>
