<svg width="16" height="15" viewBox="0 0 16 15" fill="none" xmlns="http://www.w3.org/2000/svg">
<path fill-rule="evenodd" clip-rule="evenodd" d="M4.61458 0.045C5.45184 0.00818181 5.71879 0 7.85156 0C9.98433 0 10.2513 0.00886363 11.0878 0.045C11.9244 0.0811364 12.4954 0.208636 12.995 0.393409C13.5182 0.582273 13.9929 0.8775 14.3855 1.25932C14.7852 1.63364 15.0936 2.08636 15.2906 2.58682C15.4847 3.06409 15.6175 3.60955 15.656 4.40727C15.6946 5.20841 15.7031 5.46341 15.7031 7.5C15.7031 9.53727 15.6938 9.79227 15.656 10.592C15.6182 11.3898 15.4847 11.9352 15.2906 12.4125C15.0936 12.913 14.7847 13.3665 14.3855 13.7414C13.9929 14.1232 13.5182 14.4177 12.995 14.6059C12.4954 14.7914 11.9244 14.9182 11.0893 14.955C10.2513 14.9918 9.98433 15 7.85156 15C5.71879 15 5.45184 14.9911 4.61458 14.955C3.77946 14.9189 3.20843 14.7914 2.70879 14.6059C2.18482 14.4177 1.71008 14.1227 1.31763 13.7414C0.91819 13.3668 0.609078 12.9136 0.41185 12.4132C0.218416 11.9359 0.0856534 11.3905 0.0471094 10.5927C0.00856533 9.79159 0 9.53659 0 7.5C0 5.46273 0.00927911 5.20773 0.0471094 4.40864C0.0849396 3.60955 0.218416 3.06409 0.41185 2.58682C0.609369 2.08642 0.918718 1.63317 1.31835 1.25864C1.71024 0.87716 2.1845 0.581893 2.70808 0.393409C3.20772 0.208636 3.77874 0.0818182 4.61386 0.045H4.61458ZM11.0243 1.395C10.1963 1.35886 9.94793 1.35136 7.85156 1.35136C5.7552 1.35136 5.5068 1.35886 4.67882 1.395C3.91293 1.42841 3.49751 1.55045 3.22057 1.65341C2.8544 1.78977 2.59244 1.95136 2.31764 2.21386C2.05714 2.45594 1.85667 2.75065 1.73091 3.07636C1.62313 3.34091 1.49537 3.73773 1.46039 4.46932C1.42256 5.26023 1.41471 5.4975 1.41471 7.5C1.41471 9.5025 1.42256 9.73977 1.46039 10.5307C1.49537 11.2623 1.62313 11.6591 1.73091 11.9236C1.85654 12.2489 2.05711 12.5441 2.31764 12.7861C2.57103 13.035 2.8801 13.2266 3.22057 13.3466C3.49751 13.4495 3.91293 13.5716 4.67882 13.605C5.5068 13.6411 5.75448 13.6486 7.85156 13.6486C9.94864 13.6486 10.1963 13.6411 11.0243 13.605C11.7902 13.5716 12.2056 13.4495 12.4826 13.3466C12.8487 13.2102 13.1107 13.0486 13.3855 12.7861C13.646 12.5441 13.8466 12.2489 13.9722 11.9236C14.08 11.6591 14.2078 11.2623 14.2427 10.5307C14.2806 9.73977 14.2884 9.5025 14.2884 7.5C14.2884 5.4975 14.2806 5.26023 14.2427 4.46932C14.2078 3.73773 14.08 3.34091 13.9722 3.07636C13.8295 2.72659 13.6603 2.47636 13.3855 2.21386C13.132 1.96505 12.8235 1.77355 12.4826 1.65341C12.2056 1.55045 11.7902 1.42841 11.0243 1.395ZM6.8487 9.81205C7.40878 10.0347 8.03242 10.0648 8.61311 9.89708C9.19381 9.72936 9.69553 9.37426 10.0326 8.89244C10.3696 8.41062 10.5211 7.83196 10.4612 7.2553C10.4012 6.67864 10.1335 6.13975 9.70382 5.73068C9.4299 5.46919 9.09869 5.26896 8.73403 5.14442C8.36938 5.01987 7.98035 4.97411 7.59496 5.01042C7.20956 5.04673 6.83739 5.16421 6.50524 5.35441C6.17308 5.5446 5.8892 5.80278 5.67404 6.11035C5.45888 6.41793 5.31778 6.76724 5.26092 7.13316C5.20405 7.49907 5.23282 7.87247 5.34516 8.22649C5.4575 8.5805 5.65061 8.90633 5.9106 9.18049C6.17059 9.45466 6.49098 9.67035 6.8487 9.81205ZM4.99788 4.77409C5.37263 4.41612 5.81752 4.13216 6.30716 3.93843C6.7968 3.7447 7.32158 3.64498 7.85156 3.64498C8.38154 3.64498 8.90633 3.7447 9.39597 3.93843C9.8856 4.13216 10.3305 4.41612 10.7052 4.77409C11.08 5.13206 11.3773 5.55704 11.5801 6.02475C11.7829 6.49246 11.8873 6.99375 11.8873 7.5C11.8873 8.00625 11.7829 8.50754 11.5801 8.97525C11.3773 9.44296 11.08 9.86794 10.7052 10.2259C9.9484 10.9489 8.9219 11.355 7.85156 11.355C6.78122 11.355 5.75472 10.9489 4.99788 10.2259C4.24103 9.50295 3.81584 8.52241 3.81584 7.5C3.81584 6.47759 4.24103 5.49705 4.99788 4.77409ZM12.7823 4.21909C12.8752 4.13541 12.9496 4.03478 13.001 3.92316C13.0524 3.81155 13.0799 3.69121 13.0817 3.56927C13.0836 3.44734 13.0598 3.32628 13.0118 3.21328C12.9638 3.10028 12.8926 2.99762 12.8023 2.91139C12.712 2.82516 12.6046 2.75711 12.4863 2.71126C12.368 2.66542 12.2412 2.64271 12.1136 2.64449C11.9859 2.64627 11.86 2.67249 11.7431 2.72161C11.6263 2.77073 11.5209 2.84175 11.4333 2.93045C11.2629 3.10297 11.1697 3.33213 11.1733 3.56927C11.1769 3.80641 11.2771 4.03287 11.4527 4.20057C11.6283 4.36828 11.8653 4.46402 12.1136 4.46748C12.3618 4.47093 12.6017 4.38183 12.7823 4.21909Z" fill="black"/>
</svg>
