<svg width="16" height="16" viewBox="0 0 16 16" fill="none" xmlns="http://www.w3.org/2000/svg">
<g clip-path="url(#clip0_289_25441)">
<path d="M7.90654 8.24072C7.29457 8.24072 6.70767 8.48382 6.27495 8.91655C5.84222 9.34927 5.59912 9.93617 5.59912 10.5481C5.59912 11.1601 5.84222 11.747 6.27495 12.1797C6.70767 12.6124 7.29457 12.8556 7.90654 12.8556C8.5185 12.8556 9.1054 12.6124 9.53812 12.1797C9.97085 11.747 10.2139 11.1601 10.2139 10.5481C10.2139 9.93617 9.97085 9.34927 9.53812 8.91655C9.1054 8.48382 8.5185 8.24072 7.90654 8.24072ZM6.91764 10.5481C6.91764 10.2859 7.02183 10.0343 7.20728 9.84888C7.39274 9.66343 7.64426 9.55924 7.90654 9.55924C8.16881 9.55924 8.42033 9.66343 8.60579 9.84888C8.79124 10.0343 8.89543 10.2859 8.89543 10.5481C8.89543 10.8104 8.79124 11.0619 8.60579 11.2474C8.42033 11.4328 8.16881 11.537 7.90654 11.537C7.64426 11.537 7.39274 11.4328 7.20728 11.2474C7.02183 11.0619 6.91764 10.8104 6.91764 10.5481Z" fill="#52525B"/>
<path d="M11.5516 3.37241L9.45586 0.434082L1.74975 6.59026L1.32255 6.58565V6.59224H0.986328V14.5034H14.8308V6.59224H14.1966L12.9348 2.90104L11.5516 3.37241ZM12.8036 6.59224H6.19251L11.1165 4.91376L12.1199 4.5927L12.8036 6.59224ZM10.2489 3.81675L5.16604 5.54929L9.19149 2.33341L10.2489 3.81675ZM2.30485 11.9777V9.11655C2.58317 9.01832 2.83598 8.85905 3.04474 8.6504C3.2535 8.44176 3.41292 8.18903 3.5113 7.91076H12.3058C12.4041 8.18915 12.5635 8.44201 12.7723 8.65077C12.981 8.85954 13.2339 9.01891 13.5123 9.11721V11.9784C13.2339 12.0767 12.981 12.2361 12.7723 12.4448C12.5635 12.6536 12.4041 12.9065 12.3058 13.1849H3.51262C3.41385 12.9064 3.25416 12.6536 3.04521 12.4447C2.83626 12.2359 2.58332 12.0764 2.30485 11.9777Z" fill="#52525B"/>
</g>
<defs>
<clipPath id="clip0_289_25441">
<rect width="15.8223" height="15.8223" fill="white"/>
</clipPath>
</defs>
</svg>
