<svg width="23" height="21" viewBox="0 0 23 21" fill="none" xmlns="http://www.w3.org/2000/svg">
<path d="M15.9143 18.0362L17.824 19.9141C18.3545 20.4445 19.0971 20.0201 19.0971 19.3942V14.8533L22.0678 11.2461C22.186 11.0885 22.258 10.901 22.2757 10.7048C22.2934 10.5086 22.2561 10.3113 22.168 10.135C22.0798 9.95881 21.9444 9.8106 21.7768 9.70701C21.6092 9.60343 21.4161 9.54856 21.219 9.54856H13.7924C12.9436 9.54856 12.4131 10.6095 12.9436 11.2461L15.9143 14.8533V18.0362ZM13.7924 16.9752H0V13.7924C0 10.9278 5.62304 9.54856 8.48761 9.54856C9.12418 9.54856 9.86684 9.65465 10.7156 9.76075C10.5034 10.3973 10.6095 11.14 10.8217 11.7766C10.079 11.6705 9.23027 11.5644 8.48761 11.5644C5.30476 11.5644 2.01581 13.1558 2.01581 13.7924V14.9594H13.2619L13.7924 15.596V16.9752ZM8.48761 0C6.15352 0 4.2438 1.90971 4.2438 4.2438C4.2438 6.5779 6.15352 8.48761 8.48761 8.48761C10.8217 8.48761 12.7314 6.5779 12.7314 4.2438C12.7314 1.90971 10.8217 0 8.48761 0ZM8.48761 6.36571C7.32056 6.36571 6.36571 5.41085 6.36571 4.2438C6.36571 3.07676 7.32056 2.1219 8.48761 2.1219C9.65465 2.1219 10.6095 3.07676 10.6095 4.2438C10.6095 5.41085 9.65465 6.36571 8.48761 6.36571Z" fill="#52525B"/>
</svg>
