<svg width="17" height="20" viewBox="0 0 17 20" fill="none" xmlns="http://www.w3.org/2000/svg">
<path fill-rule="evenodd" clip-rule="evenodd" d="M8.53587 0C5.46587 0 2.02287 2.16398 1.63387 5.64093V7.45291C1.50086 8.10491 1.19187 8.7149 0.746866 9.21089C0.719866 9.24189 0.694864 9.27289 0.676865 9.30889C0.269865 9.92189 0.0358658 10.6289 0.000865936 11.3589L0.0278645 11.5429C-0.00313568 12.5429 0.328865 13.5228 0.969866 14.2968C1.78187 15.1758 2.89487 15.7268 4.09087 15.8398C7.03987 16.1598 10.0169 16.1598 12.9619 15.8398C14.1419 15.7188 15.2349 15.1678 16.0319 14.2968C16.6809 13.5348 17.0239 12.5589 17.0009 11.5629V11.4379C16.9499 10.6879 16.6999 9.96089 16.2709 9.33589L16.1999 9.24589C15.7549 8.7459 15.4499 8.14091 15.3129 7.48791V5.67593L15.2669 5.57394C15.1139 5.31594 14.8249 5.16794 14.5209 5.19894C14.1809 5.23794 13.9029 5.49594 13.8489 5.83193V7.64491V7.74191C14.0359 8.6519 14.4579 9.49589 15.0749 10.1879C15.3129 10.5659 15.4459 10.9959 15.4659 11.4379V11.6329C15.4849 12.2539 15.2779 12.8629 14.8799 13.3478C14.3289 13.9138 13.5909 14.2618 12.8019 14.3318C9.94987 14.6408 7.06987 14.6408 4.21587 14.3318C3.40287 14.2578 2.64787 13.8948 2.09487 13.3048C1.71587 12.8319 1.51987 12.2419 1.53587 11.6409V11.4379C1.55587 10.9919 1.68387 10.5629 1.91887 10.1799C2.55887 9.49189 3.00887 8.6479 3.21187 7.73391C3.21587 7.70291 3.21587 7.66791 3.21187 7.63691V5.81593C3.46987 3.15996 6.14087 1.51198 8.46587 1.51198C9.45387 1.51198 10.4269 1.76198 11.2859 2.24197L11.3919 2.29697C11.6099 2.38297 11.8559 2.36697 12.0629 2.24997C12.3019 2.10898 12.4499 1.85198 12.4419 1.57798C12.4349 1.30098 12.2779 1.05099 12.0319 0.925989C10.9659 0.323996 9.76287 0.00799991 8.53587 0ZM6.85985 17.5702C6.58285 17.3202 6.15685 17.3052 5.85985 17.5512C5.53585 17.8162 5.48885 18.2972 5.75885 18.6172C6.42285 19.4802 7.44885 19.9882 8.54385 20.0002L8.76285 19.9922C9.77085 19.9182 10.7039 19.4222 11.3209 18.6172L11.3879 18.5272C11.5789 18.2112 11.5169 17.7932 11.2199 17.5512C10.8959 17.2812 10.4109 17.3282 10.1419 17.6522C10.0239 17.8092 9.88386 17.9452 9.72386 18.0622C9.30186 18.3752 8.77085 18.5082 8.25086 18.4302C7.72686 18.3522 7.25885 18.0742 6.94485 17.6522H6.93785L6.85985 17.5702Z" fill="black" fill-opacity="0.5"/>
</svg>
