<svg width="20" height="20" viewBox="0 0 20 20" fill="none" xmlns="http://www.w3.org/2000/svg">
<path d="M2.96983 17C2.68528 17 2.44693 16.904 2.25478 16.712C2.06262 16.52 1.96621 16.2827 1.96554 16C1.96487 15.7173 2.06128 15.48 2.25478 15.288C2.44827 15.096 2.68662 15 2.96983 15H3.97412V8C3.97412 6.61667 4.39258 5.38767 5.22949 4.313C6.06639 3.23834 7.15437 2.534 8.49343 2.2V1.5C8.49343 1.08334 8.64005 0.729335 8.93331 0.438002C9.22656 0.146669 9.58208 0.000668939 9.99986 2.27273e-06C10.4176 -0.000664394 10.7735 0.145336 11.0674 0.438002C11.3613 0.730669 11.5076 1.08467 11.5063 1.5V2.2C12.8454 2.53333 13.9333 3.23767 14.7702 4.313C15.6071 5.38833 16.0256 6.61733 16.0256 8V15H17.0299C17.3144 15 17.5531 15.096 17.746 15.288C17.9388 15.48 18.0349 15.7173 18.0342 16C18.0335 16.2827 17.9371 16.5203 17.7449 16.713C17.5528 16.9057 17.3144 17.0013 17.0299 17H2.96983ZM9.99986 20C9.4475 20 8.97482 19.8043 8.58181 19.413C8.18879 19.0217 7.99195 18.5507 7.99128 18H12.0084C12.0084 18.55 11.8119 19.021 11.4189 19.413C11.0259 19.805 10.5529 20.0007 9.99986 20ZM0.961252 8C0.676703 8 0.438352 7.89167 0.246198 7.675C0.0540435 7.45833 -0.0256303 7.20833 0.00717648 6.925C0.141082 5.675 0.492583 4.51233 1.06168 3.437C1.63078 2.36167 2.35889 1.42434 3.24601 0.625002C3.46361 0.441669 3.71066 0.358336 3.98718 0.375002C4.26369 0.391669 4.48531 0.516669 4.65202 0.750002C4.81873 0.983335 4.88568 1.23334 4.85288 1.5C4.82007 1.76667 4.69453 2 4.47627 2.2C3.82348 2.81667 3.28786 3.53333 2.8694 4.35C2.45095 5.16667 2.17477 6.05 2.04086 7C2.00739 7.28333 1.89022 7.521 1.68936 7.713C1.4885 7.905 1.2458 8.00067 0.961252 8ZM19.0385 8C18.7539 8 18.5112 7.904 18.3104 7.712C18.1095 7.52 17.9923 7.28267 17.9589 7C17.825 6.05 17.5488 5.16667 17.1303 4.35C16.7119 3.53333 16.1762 2.81667 15.5235 2.2C15.3059 2 15.1803 1.76667 15.1468 1.5C15.1134 1.23334 15.1803 0.983335 15.3477 0.750002C15.5151 0.516669 15.737 0.391669 16.0136 0.375002C16.2901 0.358336 16.5368 0.441669 16.7537 0.625002C17.6408 1.425 18.3689 2.36234 18.938 3.437C19.5071 4.51167 19.8586 5.67434 19.9925 6.925C20.026 7.20833 19.9467 7.45833 19.7545 7.675C19.5624 7.89167 19.3237 8 19.0385 8Z" fill="#010B38"/>
</svg>
