<svg width="27" height="27" viewBox="0 0 27 27" fill="none" xmlns="http://www.w3.org/2000/svg">
<path d="M13.2501 0.990234C6.47898 0.990234 0.990234 6.47898 0.990234 13.2501C0.990234 20.0212 6.47898 25.51 13.2501 25.51C20.0212 25.51 25.51 20.0212 25.51 13.2501C25.51 6.47898 20.0212 0.990234 13.2501 0.990234Z" stroke="#0D0D0D" stroke-width="1.98044" stroke-linecap="round" stroke-linejoin="round"/>
<path d="M3.77515 21.0276C3.77515 21.0276 6.50787 17.5385 13.2508 17.5385C19.9937 17.5385 22.7277 21.0276 22.7277 21.0276M13.2508 13.2475C14.2263 13.2475 15.1618 12.86 15.8515 12.1703C16.5413 11.4805 16.9288 10.545 16.9288 9.56956C16.9288 8.59411 16.5413 7.6586 15.8515 6.96885C15.1618 6.2791 14.2263 5.8916 13.2508 5.8916C12.2753 5.8916 11.3398 6.2791 10.6501 6.96885C9.96034 7.6586 9.57284 8.59411 9.57284 9.56956C9.57284 10.545 9.96034 11.4805 10.6501 12.1703C11.3398 12.86 12.2753 13.2475 13.2508 13.2475Z" stroke="#0D0D0D" stroke-width="1.98044" stroke-linecap="round" stroke-linejoin="round"/>
</svg>
