<svg width="16" height="16" viewBox="0 0 16 16" fill="none" xmlns="http://www.w3.org/2000/svg">
<path fill-rule="evenodd" clip-rule="evenodd" d="M4.32702 2.89777C5.34583 2.16449 6.56089 1.7531 7.81562 1.71662C9.07035 1.68014 10.3073 2.02024 11.3669 2.6931C12.4266 3.36595 13.2606 4.34072 13.7612 5.4918C14.2619 6.64288 14.4064 7.91753 14.1762 9.15148C14.1382 9.37317 14.1889 9.6009 14.3174 9.78553C14.4458 9.97017 14.6417 10.0969 14.8627 10.1385C15.0838 10.18 15.3123 10.133 15.499 10.0076C15.6857 9.88217 15.8156 9.68839 15.8607 9.46805C16.1586 7.87418 15.965 6.22743 15.3056 4.74609C14.6462 3.26476 13.5522 2.01879 12.1686 1.17335C10.785 0.327919 9.17711 -0.0770575 7.55811 0.0121064C5.9391 0.10127 4.38542 0.680364 3.10302 1.67262L2.40359 0.973196C2.32374 0.893143 2.22194 0.838579 2.11106 0.816409C2.00019 0.79424 1.88523 0.805461 1.78074 0.848654C1.67624 0.891846 1.58691 0.965068 1.52405 1.05905C1.46118 1.15304 1.42762 1.26356 1.42759 1.37662V3.9972C1.42759 4.14875 1.4878 4.29409 1.59496 4.40126C1.70212 4.50842 1.84747 4.56862 1.99902 4.56862H4.61959C4.73243 4.56838 4.84266 4.53473 4.9364 4.47192C5.03014 4.40911 5.10319 4.31996 5.14633 4.2157C5.18948 4.11144 5.20079 3.99674 5.17885 3.88606C5.1569 3.77538 5.10268 3.67368 5.02302 3.59377L4.32702 2.89777ZM1.13731 5.84291C0.913919 5.80078 0.682945 5.84912 0.495195 5.97728C0.307445 6.10545 0.178298 6.30295 0.136165 6.52634C-0.161911 8.1204 0.03158 9.76742 0.690981 11.249C1.35038 12.7306 2.44454 13.9767 3.82838 14.8222C5.21222 15.6677 6.82037 16.0726 8.4396 15.9833C10.0588 15.8939 11.6126 15.3144 12.895 14.3218L13.5945 15.0223C13.6744 15.1025 13.7763 15.1571 13.8873 15.1792C13.9982 15.2013 14.1133 15.19 14.2178 15.1467C14.3224 15.1033 14.4117 15.0299 14.4745 14.9358C14.5372 14.8416 14.5707 14.7309 14.5705 14.6178V11.9972C14.5705 11.8456 14.5102 11.7003 14.4031 11.5931C14.2959 11.486 14.1506 11.4258 13.999 11.4258H11.3784C11.2653 11.4256 11.1546 11.459 11.0604 11.5217C10.9663 11.5845 10.8929 11.6738 10.8496 11.7784C10.8062 11.8829 10.7949 11.998 10.817 12.109C10.8392 12.2199 10.8938 12.3218 10.9739 12.4018L11.671 13.0978C10.6522 13.831 9.43715 14.2424 8.18242 14.2789C6.92769 14.3154 5.69079 13.9753 4.63109 13.3024C3.5714 12.6296 2.73748 11.6548 2.2368 10.5037C1.73611 9.35265 1.59159 8.07801 1.82188 6.84405C1.84271 6.73328 1.8415 6.61949 1.8183 6.50919C1.7951 6.39889 1.75037 6.29425 1.68668 6.20125C1.62298 6.10826 1.54157 6.02874 1.44711 5.96726C1.35264 5.90577 1.24698 5.86351 1.13616 5.84291H1.13731ZM7.28245 4.17663C7.28245 3.9493 7.37276 3.73128 7.5335 3.57053C7.69425 3.40979 7.91226 3.31948 8.13959 3.31948C8.36692 3.31948 8.58494 3.40979 8.74568 3.57053C8.90643 3.73128 8.99674 3.9493 8.99674 4.17663V4.56862C9.44355 4.64255 9.85062 4.86989 10.1479 5.21153C10.4452 5.55317 10.6142 5.98774 10.6257 6.44048C10.6372 6.89322 10.4905 7.33581 10.2109 7.6921C9.93137 8.04839 9.53636 8.29611 9.09388 8.39263L7.65388 8.70691C7.56849 8.72857 7.49378 8.78033 7.4435 8.85266C7.39322 8.925 7.37074 9.01306 7.38019 9.10065C7.38964 9.18823 7.4304 9.26947 7.49496 9.32941C7.55952 9.38935 7.64355 9.42397 7.73159 9.42691H8.54759C8.62271 9.42662 8.69591 9.40321 8.75725 9.35987C8.81859 9.31652 8.8651 9.25533 8.89045 9.18463C8.92797 9.07844 8.98604 8.98069 9.06134 8.89695C9.13664 8.8132 9.22769 8.74511 9.32931 8.69656C9.43092 8.64801 9.5411 8.61995 9.65356 8.61398C9.76602 8.60801 9.87855 8.62425 9.98474 8.66177C10.0909 8.69929 10.1887 8.75736 10.2724 8.83265C10.3562 8.90795 10.4242 8.99901 10.4728 9.10062C10.5213 9.20224 10.5494 9.31242 10.5554 9.42488C10.5614 9.53734 10.5451 9.64987 10.5076 9.75605C10.39 10.0887 10.1897 10.3859 9.92563 10.6198C9.66153 10.8538 9.34227 11.0166 8.99788 11.0932V11.5069C8.99788 11.7342 8.90757 11.9523 8.74683 12.113C8.58608 12.2737 8.36806 12.3641 8.14074 12.3641C7.91341 12.3641 7.69539 12.2737 7.53464 12.113C7.3739 11.9523 7.28359 11.7342 7.28359 11.5069V11.0932C6.82194 10.9897 6.40935 10.732 6.1139 10.3624C5.81846 9.99293 5.65782 9.53373 5.65848 9.06062C5.65915 8.58751 5.82108 8.12877 6.11757 7.76008C6.41405 7.39139 6.82736 7.13479 7.28931 7.03263L8.72931 6.7172C8.78518 6.7046 8.83446 6.67187 8.86775 6.62525C8.90104 6.57864 8.916 6.5214 8.90978 6.46446C8.90356 6.40752 8.8766 6.35486 8.83404 6.31653C8.79148 6.2782 8.7363 6.25687 8.67902 6.25663H7.73274C7.65762 6.25691 7.58442 6.28032 7.52308 6.32367C7.46174 6.36702 7.41523 6.4282 7.38988 6.49891C7.3141 6.71336 7.15624 6.88892 6.95102 6.98697C6.84941 7.03552 6.73923 7.06359 6.62677 7.06956C6.51431 7.07553 6.40178 7.05929 6.29559 7.02177C6.18941 6.98425 6.09166 6.92618 6.00792 6.85088C5.92417 6.77558 5.85608 6.68453 5.80753 6.58291C5.75898 6.4813 5.73092 6.37112 5.72495 6.25866C5.71898 6.1462 5.73522 6.03367 5.77274 5.92748C5.89043 5.59472 6.09087 5.29738 6.35518 5.06346C6.6195 4.82953 6.93899 4.66672 7.28359 4.59034V4.17891L7.28245 4.17663Z" fill="#202244"/>
</svg>
