<svg width="16" height="16" viewBox="0 0 16 16" fill="none" xmlns="http://www.w3.org/2000/svg">
<path d="M9.88428 0.658691H5.92871V1.97721H9.88428V0.658691ZM7.24723 9.22909H8.56576V5.27352H7.24723V9.22909ZM12.5411 4.87137L13.4773 3.93522C13.1938 3.599 12.8839 3.28255 12.5477 3.00566L11.6115 3.94181C10.5616 3.09676 9.25426 2.63616 7.90649 2.63647C4.62997 2.63647 1.97314 5.2933 1.97314 8.56983C1.97314 11.8464 4.62337 14.5032 7.90649 14.5032C9.02349 14.5038 10.1179 14.1889 11.0638 13.5947C12.0096 13.0005 12.7684 12.1513 13.2527 11.1447C13.737 10.1382 13.9272 9.01533 13.8013 7.90546C13.6754 6.79558 13.2386 5.74384 12.5411 4.87137ZM7.90649 13.1847C5.35515 13.1847 3.29167 11.1212 3.29167 8.56983C3.29167 6.01848 5.35515 3.955 7.90649 3.955C10.4578 3.955 12.5213 6.01848 12.5213 8.56983C12.5213 11.1212 10.4578 13.1847 7.90649 13.1847Z" fill="#52525B"/>
</svg>
