<svg width="30" height="30" viewBox="0 0 30 30" fill="none" xmlns="http://www.w3.org/2000/svg">
<path d="M22.7031 10.4255C22.1257 10.6598 21.4972 10.8284 20.8499 10.8941C21.522 10.5185 22.0252 9.92521 22.2653 9.22545C21.6347 9.57833 20.9438 9.82578 20.2234 9.95681C19.9223 9.65402 19.5581 9.4128 19.1536 9.24819C18.749 9.08357 18.3128 8.99909 17.872 9.00001C16.0886 9.00001 14.6544 10.3598 14.6544 12.0284C14.6544 12.2627 14.6845 12.497 14.7336 12.7225C12.0633 12.5911 9.68167 11.3911 8.09833 9.55385C7.80983 10.0174 7.65865 10.5451 7.66051 11.0823C7.66051 12.1331 8.22855 13.0598 9.09476 13.6047C8.58429 13.5858 8.08577 13.4538 7.63975 13.2195V13.2568C7.63975 14.7284 8.74563 15.9479 10.2195 16.2284C9.94277 16.296 9.65809 16.3306 9.37217 16.3314C9.16269 16.3314 8.96454 16.3118 8.7645 16.2852C9.17213 17.4852 10.3592 18.3568 11.7726 18.3852C10.6668 19.2 9.28159 19.6793 7.77751 19.6793C7.50765 19.6793 7.25854 19.6704 7 19.642C8.4267 20.503 10.1195 21 11.9425 21C17.8607 21 21.099 16.3882 21.099 12.3852C21.099 12.2539 21.099 12.1225 21.0896 11.9911C21.7161 11.5598 22.2653 11.0254 22.7031 10.4255Z" fill="white"/>
</svg>
