<svg width="22" height="18" viewBox="0 0 22 18" fill="none" xmlns="http://www.w3.org/2000/svg">
<path d="M7.75 7.75C8.85457 7.75 9.75 6.85457 9.75 5.75C9.75 4.64543 8.85457 3.75 7.75 3.75C6.64543 3.75 5.75 4.64543 5.75 5.75C5.75 6.85457 6.64543 7.75 7.75 7.75Z" stroke="black" stroke-opacity="0.5" stroke-width="1.5"/>
<path d="M11.75 11.75C11.75 12.855 11.75 13.75 7.75 13.75C3.75 13.75 3.75 12.855 3.75 11.75C3.75 10.645 5.54 9.75 7.75 9.75C9.96 9.75 11.75 10.645 11.75 11.75Z" stroke="black" stroke-opacity="0.5" stroke-width="1.5"/>
<path d="M0.75 8.75C0.75 4.979 0.75 3.093 1.922 1.922C3.094 0.751 4.979 0.75 8.75 0.75H12.75C16.521 0.75 18.407 0.75 19.578 1.922C20.749 3.094 20.75 4.979 20.75 8.75C20.75 12.521 20.75 14.407 19.578 15.578C18.406 16.749 16.521 16.75 12.75 16.75H8.75C4.979 16.75 3.093 16.75 1.922 15.578C0.751 14.406 0.75 12.521 0.75 8.75Z" stroke="black" stroke-opacity="0.5" stroke-width="1.5"/>
<path d="M17.75 8.75H13.75M17.75 5.75H12.75M17.75 11.75H14.75" stroke="black" stroke-opacity="0.5" stroke-width="1.5" stroke-linecap="round"/>
</svg>
