<svg width="21" height="21" viewBox="0 0 21 21" fill="none" xmlns="http://www.w3.org/2000/svg">
<path d="M12 8.4C12 9.51391 11.6839 10.5822 11.1213 11.3698C10.5587 12.1575 9.79565 12.6 9 12.6C8.20435 12.6 7.44129 12.1575 6.87868 11.3698C6.31607 10.5822 6 9.51391 6 8.4C6 7.28609 6.31607 6.2178 6.87868 5.43015C7.44129 4.6425 8.20435 4.2 9 4.2C9.79565 4.2 10.5587 4.6425 11.1213 5.43015C11.6839 6.2178 12 7.28609 12 8.4ZM10.5 8.4C10.5 7.84304 10.342 7.3089 10.0607 6.91508C9.77936 6.52125 9.39782 6.3 9 6.3C8.60218 6.3 8.22064 6.52125 7.93934 6.91508C7.65804 7.3089 7.5 7.84304 7.5 8.4C7.5 8.95695 7.65804 9.4911 7.93934 9.88492C8.22064 10.2787 8.60218 10.5 9 10.5C9.39782 10.5 9.77936 10.2787 10.0607 9.88492C10.342 9.4911 10.5 8.95695 10.5 8.4ZM0 2.625C0 1.176 0.84 0 1.875 0H16.125C17.16 0 18 1.176 18 2.625V14.175C18 15.624 17.16 16.8 16.125 16.8H1.875C0.84 16.8 0 15.624 0 14.175V2.625ZM1.875 2.1C1.77554 2.1 1.68016 2.15531 1.60984 2.25377C1.53951 2.35223 1.5 2.48576 1.5 2.625V4.2H2.25C2.44891 4.2 2.63968 4.08938 2.78033 3.89246C2.92098 3.69555 3 3.42848 3 3.15V2.1H1.875ZM1.5 14.175C1.5 14.4648 1.668 14.7 1.875 14.7H3V13.65C3 13.3715 2.92098 13.1044 2.78033 12.9075C2.63968 12.7106 2.44891 12.6 2.25 12.6H1.5V14.175ZM4.5 13.65V14.7H13.5V13.65C13.5 12.8146 13.7371 12.0134 14.159 11.4226C14.581 10.8319 15.1533 10.5 15.75 10.5H16.5V6.3H15.75C15.1533 6.3 14.581 5.96813 14.159 5.37739C13.7371 4.78665 13.5 3.98543 13.5 3.15V2.1H4.5V3.15C4.5 3.98543 4.26295 4.78665 3.84099 5.37739C3.41903 5.96813 2.84674 6.3 2.25 6.3H1.5V10.5H2.25C2.84674 10.5 3.41903 10.8319 3.84099 11.4226C4.26295 12.0134 4.5 12.8146 4.5 13.65ZM15 14.7H16.125C16.2245 14.7 16.3198 14.6447 16.3902 14.5462C16.4605 14.4478 16.5 14.3142 16.5 14.175V12.6H15.75C15.5511 12.6 15.3603 12.7106 15.2197 12.9075C15.079 13.1044 15 13.3715 15 13.65V14.7ZM16.5 4.2V2.625C16.5 2.48576 16.4605 2.35223 16.3902 2.25377C16.3198 2.15531 16.2245 2.1 16.125 2.1H15V3.15C15 3.42848 15.079 3.69555 15.2197 3.89246C15.3603 4.08938 15.5511 4.2 15.75 4.2H16.5ZM5.25 21C4.77483 21.0003 4.3118 20.7899 3.92728 20.3991C3.54276 20.0082 3.25649 19.457 3.1095 18.8244C3.3175 18.8748 3.531 18.9 3.75 18.9H16.125C17.0201 18.9 17.8785 18.4022 18.5115 17.5161C19.1444 16.63 19.5 15.4281 19.5 14.175V4.3785C19.9389 4.59573 20.3188 4.99817 20.5875 5.53037C20.8561 6.06257 21.0002 6.69832 21 7.35V14.175C21 15.0713 20.8739 15.9588 20.6289 16.7868C20.3839 17.6149 20.0248 18.3672 19.5721 19.001C19.1195 19.6348 18.582 20.1375 17.9906 20.4805C17.3991 20.8235 16.7652 21 16.125 21H5.25Z" fill="#B3B3B3"/>
</svg>
